<?xml version="1.0" standalone="no"?>
<!DOCTYPE svg PUBLIC "-//W3C//DTD SVG 20010904//EN"
 "http://www.w3.org/TR/2001/REC-SVG-20010904/DTD/svg10.dtd">
<svg version="1.0" xmlns="http://www.w3.org/2000/svg"
 width="829.000000pt" height="648.000000pt" viewBox="0 0 829.000000 648.000000"
 preserveAspectRatio="xMidYMid meet">

<g transform="translate(0.000000,648.000000) scale(0.100000,-0.100000)"
fill="#000000" stroke="none">
<path d="M3243 5293 c-10 -3 -13 -47 -13 -171 0 -147 2 -171 19 -199 11 -17
29 -34 40 -38 21 -6 21 -9 21 -590 0 -522 2 -583 16 -589 20 -8 1438 -8 1458
0 14 6 16 67 16 589 0 581 0 584 21 590 11 4 29 21 40 38 17 28 19 52 19 198
0 143 -2 168 -16 173 -19 7 -1603 7 -1621 -1z m145 -186 c3 -154 -3 -177 -48
-177 -51 0 -60 27 -60 176 0 72 3 134 7 138 4 4 28 6 53 4 l45 -3 3 -138z
m162 2 c0 -77 -5 -149 -10 -160 -13 -24 -57 -25 -82 -2 -16 14 -18 33 -18 153
0 75 3 140 7 143 3 4 28 7 55 7 l48 0 0 -141z m160 -3 c0 -118 -3 -147 -16
-160 -20 -21 -53 -20 -76 1 -16 14 -18 33 -18 153 0 75 3 140 7 143 3 4 28 7
55 7 l48 0 0 -144z m158 1 c3 -154 -3 -177 -48 -177 -54 0 -60 17 -60 169 0
76 3 141 7 145 4 4 28 6 53 4 l45 -3 3 -138z m162 2 c0 -77 -5 -149 -10 -160
-13 -24 -57 -25 -82 -2 -16 14 -18 33 -18 153 0 75 3 140 7 143 3 4 28 7 55 7
l48 0 0 -141z m158 -6 c2 -118 0 -144 -13 -157 -21 -21 -54 -20 -77 1 -16 14
-18 33 -18 153 0 75 3 140 7 144 4 4 28 6 53 4 l45 -3 3 -142z m160 4 c3 -154
-3 -177 -48 -177 -54 0 -60 17 -60 169 0 76 3 141 7 145 4 4 28 6 53 4 l45 -3
3 -138z m160 -1 c2 -119 0 -141 -14 -157 -21 -23 -52 -24 -76 -2 -16 14 -18
33 -18 153 0 75 3 140 7 144 4 4 28 6 53 4 l45 -3 3 -139z m160 0 c2 -119 0
-141 -14 -157 -21 -23 -57 -24 -78 -3 -13 12 -16 41 -16 153 0 76 3 141 7 145
4 4 28 6 53 4 l45 -3 3 -139z m160 0 c2 -119 0 -141 -14 -157 -21 -23 -57 -24
-78 -3 -13 12 -16 41 -16 153 0 76 3 141 7 145 4 4 28 6 53 4 l45 -3 3 -139z
m-1303 -226 c19 6 37 15 40 20 2 4 23 -1 45 -12 34 -17 44 -18 75 -8 19 6 37
15 40 20 3 4 22 -1 42 -11 26 -13 48 -17 70 -13 l33 6 -2 -563 -3 -564 -250 0
-250 0 -3 555 -2 555 25 21 c26 21 26 21 65 2 34 -17 45 -18 75 -8z m640 0
c19 6 37 15 40 20 2 4 23 -1 45 -12 34 -17 44 -18 75 -8 19 6 37 15 40 20 2 4
23 -1 45 -12 34 -17 44 -18 75 -8 19 6 37 15 40 20 2 4 23 -1 45 -12 34 -17
44 -18 75 -8 19 6 37 15 40 20 3 5 19 1 35 -8 l30 -17 -2 -560 -3 -560 -25 0
-25 0 -3 220 c-3 234 -3 235 -54 235 l-28 0 0 213 c0 238 -3 250 -65 261 -29
6 -35 11 -35 31 0 20 -5 25 -25 25 -20 0 -25 -5 -25 -24 l0 -25 -149 -3 c-143
-3 -151 -4 -176 -28 -25 -23 -26 -28 -23 -115 3 -84 4 -90 25 -93 15 -2 23
-11 25 -30 4 -36 41 -38 48 -2 3 15 14 26 30 30 20 5 26 13 28 43 l3 37 65 0
64 0 0 -95 0 -95 -144 0 c-136 0 -146 -1 -170 -22 -17 -16 -27 -36 -29 -63 -2
-21 -8 -40 -13 -41 -5 -1 -21 -5 -36 -8 l-28 -6 -2 -223 -3 -222 -25 0 -25 0
-3 564 -2 563 32 -6 c22 -4 45 0 68 12 33 16 37 16 72 -1 32 -16 43 -17 73 -7z
m393 -462 l2 -208 -225 0 -225 0 0 35 c0 44 3 44 190 48 l145 2 0 140 0 140
-107 3 c-99 2 -108 1 -118 -18 -6 -11 -10 -28 -8 -38 2 -12 -5 -18 -24 -20
-28 -3 -28 -3 -28 56 0 32 3 62 7 66 4 3 93 5 197 4 l191 -3 3 -207z m82 -288
l0 -30 -305 0 -305 0 0 30 0 30 305 0 305 0 0 -30z m-560 -230 l0 -150 -25 0
-25 0 0 150 0 150 25 0 25 0 0 -150z m455 0 l0 -145 -197 -3 -198 -2 0 150 0
150 198 -2 197 -3 0 -145z m105 0 l0 -150 -25 0 -25 0 0 150 0 150 25 0 25 0
0 -150z"/>
<path d="M3580 4797 c0 -16 -9 -26 -30 -34 -22 -8 -30 -18 -30 -36 0 -20 -6
-27 -29 -32 -50 -11 -53 -23 -24 -113 l27 -82 -37 -75 c-36 -73 -37 -79 -37
-180 0 -120 -6 -111 94 -129 l61 -11 3 -86 c2 -76 0 -91 -20 -122 -17 -27 -30
-36 -52 -37 -23 0 -27 3 -23 19 7 29 -27 58 -48 41 -19 -16 -19 -31 2 -75 16
-34 18 -35 73 -35 51 0 58 3 68 25 15 32 36 32 50 0 11 -24 16 -26 70 -23 54
3 58 5 77 40 19 36 19 37 0 58 -17 19 -20 19 -34 5 -9 -8 -16 -23 -16 -33 0
-11 -9 -18 -26 -20 -19 -2 -28 3 -37 23 -6 14 -16 25 -22 25 -6 0 -10 38 -10
99 l0 99 57 7 c106 13 103 10 103 125 0 97 -1 103 -40 181 l-41 80 26 71 c34
95 33 103 -15 122 -32 13 -40 21 -40 41 0 18 -7 26 -25 31 -18 4 -25 13 -25
30 0 19 -5 24 -25 24 -19 0 -25 -5 -25 -23z m52 -109 c2 -14 14 -25 33 -31 17
-5 32 -11 33 -13 2 -1 -7 -34 -19 -73 l-23 -71 43 -88 c40 -82 42 -91 39 -162
l-3 -75 -66 -10 c-45 -8 -86 -8 -132 -1 l-67 10 0 83 c0 78 3 89 41 164 l40
81 -20 61 c-27 78 -27 80 9 94 20 8 30 18 30 32 0 31 57 30 62 -1z"/>
<path d="M4330 3195 c0 -11 11 -15 40 -15 l40 0 0 -525 0 -525 -40 0 c-29 0
-40 -4 -40 -15 0 -13 29 -15 205 -15 176 0 205 2 205 15 0 11 -11 15 -40 15
l-40 0 0 540 0 540 -165 0 c-140 0 -165 -2 -165 -15z"/>
<path d="M2410 3010 c0 -12 7 -20 16 -20 8 0 29 -13 45 -29 l29 -29 0 -401 0
-401 -45 0 c-33 0 -45 -4 -45 -15 0 -13 21 -15 130 -15 109 0 130 2 130 15 0
12 -14 15 -65 15 l-65 0 0 372 c0 223 4 368 9 363 5 -6 147 -181 316 -390 181
-225 314 -381 325 -383 19 -3 20 8 22 450 l3 453 58 3 c42 2 57 7 57 17 0 12
-24 15 -140 15 -118 0 -140 -2 -140 -15 0 -12 14 -15 65 -15 l65 0 0 -262 0
-263 -23 28 c-12 15 -116 139 -232 276 l-210 250 -152 0 c-147 1 -153 0 -153
-19z"/>
<path d="M3663 2860 c-174 -37 -258 -195 -152 -285 64 -53 166 -20 188 63 8
27 6 51 -6 99 -21 77 -13 96 44 103 60 9 100 -6 120 -43 20 -38 33 -277 15
-277 -5 0 -63 -9 -127 -20 -234 -40 -326 -118 -313 -262 6 -59 30 -94 84 -122
32 -17 57 -21 135 -21 91 0 100 2 168 37 l71 36 31 -29 c35 -32 79 -44 161
-43 58 1 148 28 148 44 0 5 -14 8 -31 8 -61 -2 -63 7 -70 280 -4 136 -12 262
-18 281 -19 60 -54 100 -110 128 -49 24 -67 27 -175 30 -67 1 -140 -2 -163 -7z
m217 -514 c0 -144 0 -145 -26 -165 -51 -40 -137 -19 -174 42 -27 43 -27 131
-1 173 32 52 79 75 194 93 4 0 7 -64 7 -143z"/>
<path d="M4790 2846 c0 -10 13 -16 36 -18 41 -3 6 55 300 -499 63 -119 114
-223 114 -232 0 -22 -68 -179 -87 -199 -25 -28 -44 -22 -100 34 -49 49 -56 52
-111 56 -54 4 -62 2 -92 -25 -40 -36 -51 -102 -26 -151 35 -67 162 -94 251
-53 82 37 90 52 361 678 l169 392 48 1 c35 0 47 4 47 15 0 13 -21 15 -130 15
-109 0 -130 -2 -130 -15 0 -12 14 -15 64 -15 l64 0 -90 -207 c-49 -115 -93
-211 -97 -216 -6 -6 -221 398 -221 417 0 3 18 6 40 6 29 0 40 4 40 15 0 13
-32 15 -225 15 -189 0 -225 -2 -225 -14z"/>
</g>
</svg>
